<?xml version="1.0" encoding="UTF-8"?>
<svg width="388px" height="379px" viewBox="0 0 388 379" version="1.1" xmlns="http://www.w3.org/2000/svg" xmlns:xlink="http://www.w3.org/1999/xlink">
    <title>Group</title>
    <defs>
        <radialGradient cx="50%" cy="47.6414332%" fx="50%" fy="47.6414332%" r="109.103736%" gradientTransform="translate(0.500000,0.476414),scale(1.000000,0.989655),rotate(72.558809),scale(1.000000,0.956417),translate(-0.500000,-0.476414)" id="radialGradient-1">
            <stop stop-color="#3681E1" offset="0%"></stop>
            <stop stop-color="#030303" offset="99.912725%"></stop>
            <stop stop-color="#000000" offset="100%"></stop>
        </radialGradient>
    </defs>
    <g id="Page-3" stroke="none" stroke-width="1" fill="none" fill-rule="evenodd">
        <g id="Group">
            <rect id="Rectangle" stroke="#979797" stroke-width="2" fill="#FFFFFF" x="1" y="1" width="386" height="377" rx="100"></rect>
            <ellipse id="Oval" stroke="#979797" fill="url(#radialGradient-1)" cx="198.5" cy="181" rx="143" ry="144.5"></ellipse>
            <ellipse id="Oval" stroke-opacity="0.386828016" stroke="#000000" fill="#26599B" cx="198" cy="180.5" rx="91.5" ry="90"></ellipse>
            <path d="M200.148001,47.5677848 C188.06659,46.7621765 176.775044,53.1841031 167.934555,64.3577228 C158.907097,75.7676568 152.431929,92.1324923 150.262111,110.922435 L149.873234,111.699149 C145.596949,120.342427 142.981624,130.310937 142.559915,141.036259 C141.857112,158.910614 147.379516,175.505458 156.882634,187.884101 C166.36122,200.230788 179.802674,208.383078 194.970453,209.39449 C210.129832,210.405343 224.13395,204.089105 234.525906,193.073545 C244.946802,182.027308 251.737537,166.258485 252.440085,148.39059 C252.964786,135.045895 250.019518,122.414809 244.484762,111.534004 C242.984405,93.8626341 237.579866,78.1072333 229.601638,66.634905 C221.820766,55.4463635 211.590616,48.330797 200.148001,47.5677848 Z" id="Path" stroke="#366204" fill="#356211"></path>
            <path d="M200.121836,51.5645893 C189.339246,50.8140027 179.259086,56.6480145 171.312246,66.8342515 C163.170631,77.2701513 157.264904,92.274813 155.119812,109.56424 L154.649729,110.491684 C150.49063,118.839454 147.943694,128.558982 147.552482,139.049125 C146.92517,155.87019 151.958991,171.490955 160.61195,183.145972 C169.23593,194.761957 181.457858,202.439163 195.246568,203.399009 C209.025185,204.358152 221.747198,198.424479 231.184075,188.073423 C240.655534,177.684434 246.820479,162.848923 247.447518,146.035211 C247.910578,133.618483 245.288778,121.856259 240.354138,111.681462 C238.984116,95.0756705 234.072313,80.2674787 226.826706,69.4826199 C219.768505,58.9767087 210.494838,52.2866642 200.121836,51.5645893 Z" id="Path" stroke="#F2E87A" fill="#F2E880"></path>
            <path d="M211.608044,116.333986 C207.356608,116.353735 203.439994,117.696621 199.756451,119.934822 C196.685981,117.755664 192.807504,116.467638 188.586833,116.48703 C183.582003,116.510025 179.040832,118.366941 175.746567,121.355556 C172.470786,124.327403 170.428646,128.419966 170.407472,132.933538 C170.388019,137.135486 172.12388,140.957322 174.986267,143.837294 L174.117667,143.839293 L199.480709,171.473348 L225.618709,142.8357 C228.104864,140.031955 229.607025,136.472832 229.625264,132.605112 C229.64626,128.094335 227.644201,124.022391 224.39791,121.082162 C221.132816,118.124901 216.61055,116.311109 211.608044,116.333986 Z" id="Path" stroke="#AA471F" fill="#AA471F"></path>
            <path d="M176.174133,86.5096916 C174.935534,86.4291546 173.792878,86.856572 172.947399,87.6146462 C172.102413,88.372279 171.555112,89.4595014 171.503922,90.6958537 C171.452462,91.9387187 171.91127,93.0962043 172.692896,93.9635166 C173.474947,94.8313013 174.580791,95.4093502 175.825867,95.4903084 C177.064466,95.5708454 178.207122,95.143428 179.052601,94.3853538 C179.897587,93.627721 180.444888,92.5404986 180.496078,91.3041463 C180.547538,90.0612813 180.08873,88.9037957 179.307104,88.0364834 C178.525053,87.1686987 177.419209,86.5906498 176.174133,86.5096916 Z" id="Oval" stroke="#000000" fill="#000000"></path>
            <path d="M214.500493,90.5931325 C214.482172,91.8397102 214.975148,93.008892 215.782357,93.8932018 C216.590657,94.7787074 217.715709,95.3804832 218.968054,95.4842427 C220.201771,95.5864588 221.327732,95.1839384 222.148765,94.4445378 C222.968453,93.7063497 223.481463,92.6345453 223.499507,91.4068675 C223.517828,90.1602898 223.024852,88.991108 222.217643,88.1067982 C221.409343,87.2212926 220.284291,86.6195168 219.031946,86.5157573 C217.798229,86.4135412 216.672268,86.8160616 215.851235,87.5554622 C215.031547,88.2936503 214.518537,89.3654547 214.500493,90.5931325 Z" id="Oval-Copy-2" stroke="#000000" fill="#000000"></path>
            <path d="M194,91 C196.052021,92.9538658 197.664918,93.9533128 198.83869,93.998341 C200.012462,94.0433692 201.732898,93.1717954 204,91.3836196" id="Line" stroke="#000000" stroke-width="2" fill-opacity="0" fill="#0C0B0B" stroke-linecap="square"></path>
            <path d="M170.748317,98.6879198 C170.974241,98.9207894 171.306365,99.1447641 171.713537,99.3546632 C172.583075,99.802914 173.781465,100.173473 175.100487,100.366313 C176.408974,100.557613 177.591353,100.539215 178.44457,100.345284 C178.818487,100.260295 179.124035,100.146001 179.328853,99.9897783 C179.420824,99.919628 179.501642,99.8438225 179.500057,99.7385081 C179.497823,99.5916238 179.389352,99.4539818 179.251683,99.3120802 C179.025759,99.0792106 178.693635,98.8552359 178.286463,98.6453368 C177.416925,98.197086 176.218535,97.8265267 174.899513,97.6336868 C173.591026,97.4423871 172.408647,97.4607845 171.55543,97.6547156 C171.181513,97.7397046 170.875965,97.8539987 170.671147,98.0102217 C170.579176,98.080372 170.498358,98.1561775 170.748317,98.6879198 Z" id="Oval" stroke="#EEBEBE" fill="#EFBEBE" opacity="0.5" transform="translate(175.000000, 99.000000) rotate(-15.000000) translate(-175.000000, -99.000000) "></path>
            <path d="M215.715961,99.0648405 C215.925821,99.2870126 216.241029,99.4907582 216.629716,99.6749502 C217.476821,100.076379 218.657178,100.368909 219.967433,100.466229 C221.274791,100.563334 222.466836,100.448189 223.336023,100.174953 C223.728361,100.051619 224.050823,99.8994841 224.271327,99.712916 C224.396915,99.6066564 224.494884,99.4929594 224.499819,99.3536407 C224.505095,99.2047017 224.410317,99.0688455 224.284039,98.9351595 C224.074179,98.7129874 223.758971,98.5092418 223.370284,98.3250498 C222.523179,97.9236212 221.342822,97.6310913 220.032567,97.5337713 C218.725209,97.4366664 217.533164,97.5518106 216.663977,97.8250465 C216.271639,97.9483811 215.949177,98.1005159 215.728673,98.287084 C215.603085,98.3933436 215.505116,98.5070406 215.715961,99.0648405 Z" id="Oval-Copy-4" stroke="#EEBEBE" fill="#EFBEBE" opacity="0.5"></path>
            <path d="M215,149 C218.601978,145.250181 221.41254,141.938563 223.431687,139.065147 C224.846844,137.051258 225.524893,132.96125 224.523233,128.50932 C224.238227,127.242597 223.433496,125.406157 222.10904,123 C222.16555,128.800837 221.790491,133.176298 220.983865,136.126385 C220.177239,139.076472 218.182617,143.367677 215,149 Z" id="Line-2" stroke="#C15C37" fill="#C15C37" stroke-linecap="square"></path>
            <text id="Yummy-Dish" stroke="#356211" fill="#F2E880" font-family="Rockwell-Regular, Rockwell" font-size="60" font-weight="normal" line-spacing="40">
                <tspan x="74.6054688" y="226.142578">Yummy </tspan>
                <tspan x="121.641602" y="266.142578">Dish</tspan>
            </text>
        </g>
    </g>
</svg>